<?xml version="1.0" encoding="UTF-8" standalone="no"?>
<svg width="1040px" height="1040px" viewBox="0 0 1040 1040" version="1.1" xmlns="http://www.w3.org/2000/svg" xmlns:xlink="http://www.w3.org/1999/xlink" xmlns:sketch="http://www.bohemiancoding.com/sketch/ns">
    <title>icon@2x</title>
    <description>Created with Sketch (http://www.bohemiancoding.com/sketch)</description>
    <defs></defs>
    <g id="Page-1" stroke="none" stroke-width="1" fill="none" fill-rule="evenodd" sketch:type="MSPage">
        <path d="M126.160541,653.398595 L126.160541,969.159459 C126.160541,969.159459 300.028865,1039.10649 515.865405,1039.10649 C813.639892,1039.10649 925.555135,915.200324 925.555135,725.344108 C925.555135,543.481838 805.645946,419.575676 515.865405,401.589297 C415.941081,393.595351 365.978919,371.612 365.978919,315.654378 C365.978919,253.701297 409.945622,225.722486 515.865405,225.722486 C559.832108,225.722486 605.797297,235.714919 651.762486,245.707351 C657.757946,323.648324 669.748865,383.602919 669.748865,383.602919 L865.600541,383.602919 L865.600541,63.8450811 C865.600541,63.8450811 719.711027,-0.106486486 515.865405,-0.106486486 C220.089405,-0.106486486 106.175676,115.80573 106.175676,315.654378 C106.175676,495.518162 222.087892,619.424324 515.865405,637.410703 C613.791243,643.406162 665.751892,667.388 665.751892,725.344108 C665.751892,787.297189 611.792757,813.277514 515.865405,813.277514 C453.912324,813.277514 389.960757,801.286595 326.009189,787.297189 C322.012216,733.338054 310.021297,653.398595 310.021297,653.398595 L126.160541,653.398595 Z" id="s" fill="#A81F80" sketch:type="MSShapeGroup"></path>
    </g>
</svg>